<svg xmlns="http://www.w3.org/2000/svg" width="46.5" height="57" viewBox="0 0 46.5 57">
  <path id="icon-findalocation" d="M2779.675,1954.117c0-3.142,2.95-5.861,8.3-7.661a1.751,1.751,0,0,1,1.115,3.32c-4.371,1.465-5.92,3.256-5.92,4.341,0,2.547,7.5,6.248,19.25,6.248s19.25-3.7,19.25-6.248c0-1.085-1.551-2.876-5.922-4.342a1.751,1.751,0,0,1,1.115-3.32c5.356,1.8,8.308,4.522,8.308,7.662,0,6.333-11.723,9.749-22.75,9.749S2779.675,1960.45,2779.675,1954.117Zm21.344-1.458c-.586-.789-14.345-19.457-14.345-29.042a15.75,15.75,0,0,1,31.5,0c0,9.585-13.757,28.253-14.345,29.042a1.749,1.749,0,0,1-2.81,0Zm-10.846-29.042c0,6.256,7.864,18.755,12.25,25,4.388-6.251,12.25-18.753,12.25-25a12.25,12.25,0,0,0-24.5,0Zm5.251,0a7,7,0,1,1,7,7A7.006,7.006,0,0,1,2795.425,1923.616Zm3.5,0a3.5,3.5,0,1,0,3.5-3.5A3.5,3.5,0,0,0,2798.925,1923.616Z" transform="translate(-2779.175 -1907.366)" fill="#c9d0e4" stroke="rgba(0,0,0,0)" stroke-miterlimit="10" stroke-width="1"/>
</svg>
