<svg xmlns="http://www.w3.org/2000/svg" width="57.001" height="57.001" viewBox="0 0 57.001 57.001">
  <path id="MyCare_Icon" data-name="MyCare Icon" d="M3274.16,2016.122a28,28,0,1,1,28,28A28,28,0,0,1,3274.16,2016.122Zm16.951-14.4a10.462,10.462,0,0,0-9.281,9.877v2.083c.53,5.991,5.651,13.382,20.621,22.654,14.969-9.272,20.092-16.663,20.623-22.654V2011.6a10.466,10.466,0,0,0-9.283-9.877q-.995-.085-1.868-.084c-4.669,0-6.909,1.781-9.471,4.478-2.563-2.7-4.8-4.478-9.471-4.478Q3292.106,2001.642,3291.111,2001.726Zm9.592,23.5a.842.842,0,0,1-.844-.841v-1.717l0,0v-.944a.841.841,0,0,0-.841-.841h-2.6a.841.841,0,0,1-.842-.841v-4.066a.841.841,0,0,1,.842-.841h2.748a.839.839,0,0,0,.69-.825v-.959l0,0v-1.715a.842.842,0,0,1,.844-.841h4.064a.841.841,0,0,1,.841.841v2.7a.839.839,0,0,0,.713.8h2.856a.841.841,0,0,1,.841.841v4.066a.84.84,0,0,1-.841.841h-2.754a.839.839,0,0,0-.814.811v2.694a.84.84,0,0,1-.841.841Z" transform="translate(-3273.66 -1987.622)" fill="#c9d0e4" stroke="rgba(0,0,0,0)" stroke-miterlimit="10" stroke-width="1"/>
</svg>
