<svg xmlns="http://www.w3.org/2000/svg" width="60.466" height="62.023" viewBox="0 0 60.466 62.023">
  <path id="icon-paymybill" d="M3021.855,2547.022a4.507,4.507,0,0,1-2.178-.563l-.071-.042c-1.834-1.136-7.088-4.252-9.33-5-1.243-.416-6.879-.6-10.483-.6a3.8,3.8,0,0,1-3.792-3.792v-9.651a3.8,3.8,0,0,1,3.792-3.791,16.358,16.358,0,0,0,5.132-1.025,16.849,16.849,0,0,1,5.208-1.044c6.6,0,9.242,1.919,12.6,4.35,1.167.844,2.49,1.8,4.144,2.785,1.537.915,7.681,1.618,11.578,1.828a4.426,4.426,0,0,1,1.774.387,76.17,76.17,0,0,0,5.906-5.378c1-1.03,3.639-3.768,6.792-1.922a4.539,4.539,0,0,1,1.905,5.959,1.834,1.834,0,0,1-.193.3c-.083.1-8.323,10.48-10.621,14.293-.715,1.187-2.777,2.9-4.631,2.9Zm-15.892-21.178a19.664,19.664,0,0,1-6.17,1.183.347.347,0,0,0-.346.347v9.651a.346.346,0,0,0,.346.345c1.543,0,9.354.038,11.575.778,2.985.994,9.363,4.91,10.011,5.313a1.046,1.046,0,0,0,.475.115h17.527a3.6,3.6,0,0,0,1.682-1.235c2.269-3.767,9.589-13.037,10.734-14.483a1.158,1.158,0,0,0-.616-1.318c-.515-.3-1.1-.177-2.569,1.343a78.238,78.238,0,0,1-6.016,5.5,4.484,4.484,0,0,1-4.144,6.06l-13.06.687-.091,0c-2.115,0-4.559-1.73-7.142-3.559a29.449,29.449,0,0,0-3.281-2.138,1.724,1.724,0,1,1,1.54-3.084,21.675,21.675,0,0,1,2.494,1.542c.4.279.815.566,1.237.865,1.628,1.153,4.078,2.887,5.116,2.927l13.044-.687.091,0a1.034,1.034,0,0,0,0-2.068c-.032,0-.06,0-.091,0a74.9,74.9,0,0,1-9.155-1.032,13.893,13.893,0,0,1-4.045-1.277c-1.786-1.062-3.176-2.071-4.4-2.959-3.179-2.3-5.1-3.693-10.573-3.693A13.821,13.821,0,0,0,3005.963,2525.845Zm26.435,1.453a1.689,1.689,0,0,1-1.689-1.688v-2.783a22.6,22.6,0,0,1-7.333-2.051,1.689,1.689,0,0,1-.859-1.876l1.489-6.422a1.691,1.691,0,0,1,2.389-1.135,16.966,16.966,0,0,0,7.447,1.875c1.634,0,2.281-.352,2.377-.475-.019-.128-.282-.706-3.671-1.759-4.232-1.36-9.841-3.9-9.841-10.315,0-4.758,3.119-8.487,8.236-9.978v-3a1.689,1.689,0,0,1,1.689-1.689h5.257a1.69,1.69,0,0,1,1.689,1.689v2.363a18.907,18.907,0,0,1,6.068,1.535,1.691,1.691,0,0,1,.957,1.939l-1.489,6.188a1.69,1.69,0,0,1-2.279,1.17l-.326-.135a14.673,14.673,0,0,0-6.063-1.322,4.161,4.161,0,0,0-1.774.272,16.683,16.683,0,0,0,4.234,1.84c6.316,2.106,9.141,5.326,9.141,10.437,0,4.958-3.28,8.784-8.655,10.236v3.4a1.689,1.689,0,0,1-1.689,1.688Zm-6.274-9a22.8,22.8,0,0,0,6.37,1.295,1.69,1.69,0,0,1,1.593,1.687v2.638h1.926v-3.057a1.688,1.688,0,0,1,1.383-1.661c4.552-.834,7.271-3.536,7.271-7.225,0-3.057-1.147-5.336-6.849-7.237-3.772-1.3-6.646-2.494-6.646-5,0-.867.382-3.691,5.272-3.691a17.5,17.5,0,0,1,5.836.989l.691-2.87a17.589,17.589,0,0,0-5.134-.836,1.69,1.69,0,0,1-1.641-1.689v-2.265h-1.878v2.637a1.694,1.694,0,0,1-1.356,1.658c-4.372.881-6.879,3.433-6.879,7,0,3.29,2.236,5.409,7.48,7.094,3.034.942,6.012,2.11,6.012,5,0,.9-.414,3.83-5.737,3.83a19.373,19.373,0,0,1-7-1.375Z" transform="translate(-2995.5 -2485.5)" fill="#c9d0e4" stroke="rgba(0,0,0,0)" stroke-miterlimit="10" stroke-width="1"/>
</svg>
