<svg xmlns="http://www.w3.org/2000/svg" width="56.999" height="57" viewBox="0 0 56.999 57">
  <path id="icon-findadoc" d="M3099.066,2033.6c0-.35.074-3.549,2.578-8.563,2-4,6.368-7.175,12.294-8.931l.617-.183a46.5,46.5,0,0,0,2.482,4.047s-1.251.473-3.061,1.025c-5.341,1.877-7.4,4.6-8.157,6.129a20.368,20.368,0,0,0-2,5.749c2.156,1.012,10.085,2.541,23.247,2.541s21.092-1.529,23.246-2.541a20.611,20.611,0,0,0-2-5.749,10.909,10.909,0,0,0-3.947-4.095c.056-.376.113-.76.167-1.12.205-1.456.41-2.727.67-3.769a16.469,16.469,0,0,1,7.284,6.9c2.506,5.015,2.578,8.213,2.578,8.563,0,5.357-15.224,6.481-28,6.481S3099.066,2038.955,3099.066,2033.6Zm31.974-2.132c-2.94-1.616-4.375-5.152-4.878-6.686-7.229-1.364-13.483-18.452-14.2-20.479a1.168,1.168,0,0,1,1.1-1.555h.36c-.171-.961-.3-1.813-.352-2.342a27.633,27.633,0,0,1,.115-6.03c.788-5.87,6.754-10.3,13.877-10.3s13.086,4.425,13.877,10.3a27.154,27.154,0,0,1,.116,5.942c-.046.559-.183,1.444-.356,2.43h.362a1.158,1.158,0,0,1,.951.493,1.188,1.188,0,0,1,.153,1.062c-.7,1.967-6.612,18.163-13.569,20.35.537,1.422,1.661,3.731,3.573,4.771a4.609,4.609,0,0,0,3.855.217c2.82-.941,3.337-4.558,3.885-8.392.554-3.9,1.22-8.257,4.742-9.941a3.522,3.522,0,1,1,.366,2.468c-1.875,1.425-2.335,4.528-2.8,7.8-.6,4.164-1.271,8.885-5.455,10.279a8.058,8.058,0,0,1-2.538.435A6.533,6.533,0,0,1,3131.041,2031.466Zm-3.975-8.887c1.913,0,4.057-2.12,6.095-5.114a12.321,12.321,0,0,1-12.184,0C3123.013,2020.46,3125.157,2022.579,3127.066,2022.579Zm-9.3-22.217c.175,1.386.925,5.134,1.42,7.465a8.012,8.012,0,0,0,15.774-.038c.52-2.45,1.345-6.59,1.452-7.79,0-.052,0-.093,0-.141a5.018,5.018,0,0,1-2.348-4.111C3131.873,1995.746,3129.673,1999.873,3117.763,2000.362Zm29.134,11.717a1.169,1.169,0,1,0,1.169-1.166A1.171,1.171,0,0,0,3146.9,2012.079Z" transform="translate(-3098.566 -1983.579)" fill="#c9d0e4" stroke="rgba(0,0,0,0)" stroke-miterlimit="10" stroke-width="1"/>
</svg>
